<svg width="20" height="13" viewBox="0 0 20 13" fill="none" xmlns="http://www.w3.org/2000/svg">
<path fill-rule="evenodd" clip-rule="evenodd" d="M19.2918 1.68211C19.2918 1.04907 18.8142 0.535889 18.2251 0.535889H17.1585C16.5694 0.535889 16.0918 1.04907 16.0918 1.68211V11.6161C16.0918 12.2491 16.5694 12.7623 17.1585 12.7623H18.2251C18.8142 12.7623 19.2918 12.2491 19.2918 11.6161V1.68211ZM11.8577 2.98117H12.9243C13.5135 2.98117 13.991 3.50667 13.991 4.15491V11.5886C13.991 12.2368 13.5135 12.7623 12.9243 12.7623H11.8577C11.2686 12.7623 10.791 12.2368 10.791 11.5886V4.15491C10.791 3.50667 11.2686 2.98117 11.8577 2.98117ZM7.52591 5.63022H6.45924C5.87014 5.63022 5.39258 6.16241 5.39258 6.8189V11.5736C5.39258 12.2301 5.87014 12.7623 6.45924 12.7623H7.52591C8.11502 12.7623 8.59258 12.2301 8.59258 11.5736V6.8189C8.59258 6.16241 8.11502 5.63022 7.52591 5.63022ZM2.22513 8.07551H1.15846C0.56936 8.07551 0.0917969 8.6001 0.0917969 9.24721V11.5906C0.0917969 12.2377 0.56936 12.7623 1.15846 12.7623H2.22513C2.81423 12.7623 3.2918 12.2377 3.2918 11.5906V9.24721C3.2918 8.6001 2.81423 8.07551 2.22513 8.07551Z" fill="white"/>
</svg>
