<svg width="22" height="22" viewBox="0 0 22 22" fill="none" xmlns="http://www.w3.org/2000/svg">
<path d="M11 3C10.7066 3 10.4688 3.23803 10.4688 3.53125V4.76563C10.4688 5.05876 10.7067 5.29688 11 5.29688C11.2937 5.29688 11.5313 5.05876 11.5313 4.76563V3.53125C11.5313 3.23803 11.2937 3 11 3ZM7.30469 4.23438C7.17058 4.21298 7.0271 4.24338 6.9082 4.33008C6.6713 4.50212 6.61889 4.83318 6.79102 5.07031L7.51758 6.07031C7.62183 6.21344 7.78285 6.28906 7.94727 6.28906C8.05505 6.28906 8.16351 6.25586 8.25781 6.1875C8.49478 6.01537 8.54908 5.68441 8.37695 5.44727L7.65039 4.44727C7.56409 4.3288 7.4388 4.25576 7.30469 4.23438ZM14.6953 4.23438C14.5613 4.25578 14.4359 4.32858 14.3496 4.44727L13.625 5.44727C13.4529 5.6844 13.5052 6.0154 13.7422 6.1875C13.8365 6.2559 13.945 6.28906 14.0527 6.28906C14.2172 6.28906 14.3803 6.21346 14.4844 6.07031L15.209 5.07031C15.3811 4.83317 15.3288 4.50211 15.0918 4.33008C14.9726 4.24358 14.8293 4.21299 14.6953 4.23438ZM11 6.14648C8.88209 6.14648 7.16602 7.86272 7.16602 9.98047C7.16602 10.8738 7.47304 11.6945 7.98633 12.3457C8.43613 12.9164 8.86129 13.5391 9.23047 14.166V15.4395H12.7461V14.1992C13.1119 13.5894 13.5865 12.8877 14.0137 12.3457C14.5274 11.6943 14.834 10.8744 14.834 9.98047C14.834 7.86272 13.1175 6.14648 11 6.14648ZM4.83984 7.44336C4.63336 7.46106 4.44895 7.5994 4.38086 7.80859C4.29006 8.08717 4.44186 8.38782 4.7207 8.47852L5.89648 8.85938C5.95138 8.87698 6.00614 8.88668 6.06055 8.88668C6.28446 8.88668 6.49129 8.74396 6.56445 8.51949C6.65525 8.24091 6.50345 7.94024 6.22461 7.84957L5.04883 7.46871C4.97843 7.44601 4.90867 7.43746 4.83984 7.44336ZM17.1602 7.44536C17.0916 7.43936 17.0205 7.44626 16.9512 7.46876L15.7773 7.84962C15.4985 7.94032 15.3448 8.24073 15.4356 8.51954C15.5086 8.74381 15.7175 8.88673 15.9414 8.88673C15.9959 8.88673 16.049 8.87663 16.1035 8.85943L17.2793 8.47857C17.5582 8.38787 17.7097 8.08938 17.6191 7.8106C17.551 7.6016 17.3659 7.46322 17.1602 7.44536ZM6.10742 11.0372C6.03862 11.0312 5.96683 11.0381 5.89648 11.0606L4.7207 11.4414C4.44189 11.5318 4.29003 11.8324 4.38086 12.1113C4.45336 12.3358 4.66086 12.4785 4.88477 12.4785C4.93887 12.4785 4.99439 12.4685 5.04883 12.4512L6.22461 12.0704C6.50365 11.9799 6.65521 11.6812 6.56445 11.4024C6.49685 11.1934 6.31395 11.0551 6.10742 11.0372ZM15.8945 11.0372C15.6884 11.0551 15.5035 11.1934 15.4356 11.4024C15.3448 11.6813 15.4987 11.9797 15.7773 12.0704L16.9512 12.4532C17.0057 12.4709 17.0608 12.4786 17.1152 12.4786C17.3391 12.4786 17.546 12.3355 17.6191 12.1114C17.7097 11.8324 17.5583 11.5341 17.2793 11.4434L16.1035 11.0606C16.0337 11.0381 15.9632 11.0312 15.8945 11.0372ZM7.86328 13.6387C7.72896 13.66 7.60328 13.733 7.51758 13.8516L6.79102 14.8497C6.61843 15.0868 6.6708 15.4195 6.9082 15.5918C7.002 15.6605 7.11055 15.6934 7.21875 15.6934C7.38317 15.6934 7.54481 15.6175 7.64844 15.4747L8.375 14.4747C8.54758 14.2376 8.4952 13.9068 8.25781 13.7344C8.13965 13.6477 7.9976 13.6174 7.86328 13.6387ZM14.1367 13.6387C14.0026 13.6175 13.859 13.6487 13.7402 13.7344C13.5035 13.9067 13.4524 14.2376 13.625 14.4747L14.3496 15.4747C14.4532 15.6175 14.6148 15.6934 14.7793 15.6934C14.8875 15.6934 14.9975 15.6602 15.0918 15.5918C15.3287 15.4195 15.3815 15.0868 15.209 14.8497L14.4824 13.8516C14.3963 13.7331 14.2709 13.66 14.1367 13.6387ZM9.58008 16.0469C9.36034 16.0469 9.18164 16.2257 9.18164 16.4454C9.18164 16.6652 9.36034 16.8438 9.58008 16.8438H12.418C12.6377 16.8438 12.8164 16.6652 12.8164 16.4454C12.8165 16.2257 12.6378 16.0469 12.418 16.0469H9.58008ZM9.39258 17.4434C9.39258 17.9381 9.77944 18.339 10.2676 18.3672C10.3216 18.7245 10.6274 19 11 19C11.3723 19 11.6787 18.7247 11.7324 18.3672C12.2197 18.3384 12.6074 17.9379 12.6074 17.4434H9.39258Z" fill="#ECCA6D"/>
</svg>
