<svg width="22" height="23" viewBox="0 0 22 23" fill="none" xmlns="http://www.w3.org/2000/svg">
<path d="M10.9999 3.36377C10.7066 3.36377 10.4687 3.6018 10.4687 3.89502V5.1294C10.4687 5.42253 10.7066 5.66065 10.9999 5.66065C11.2936 5.66065 11.5312 5.42253 11.5312 5.1294V3.89502C11.5312 3.6018 11.2936 3.36377 10.9999 3.36377ZM7.30463 4.59815C7.17052 4.57675 7.02704 4.60715 6.90814 4.69385C6.67124 4.86589 6.61883 5.19695 6.79096 5.43408L7.51752 6.43408C7.62177 6.57721 7.78279 6.65283 7.94721 6.65283C8.05499 6.65283 8.16345 6.61963 8.25775 6.55127C8.49472 6.37914 8.54902 6.04818 8.37689 5.81104L7.65033 4.81104C7.56403 4.69257 7.43874 4.61953 7.30463 4.59815ZM14.6953 4.59815C14.5612 4.61955 14.4358 4.69235 14.3496 4.81104L13.6249 5.81104C13.4528 6.04817 13.5051 6.37917 13.7421 6.55127C13.8364 6.61967 13.9449 6.65283 14.0527 6.65283C14.2171 6.65283 14.3803 6.57723 14.4843 6.43408L15.2089 5.43408C15.381 5.19694 15.3287 4.86588 15.0917 4.69385C14.9726 4.60735 14.8293 4.57676 14.6953 4.59815ZM10.9999 6.51025C8.88203 6.51025 7.16596 8.22649 7.16596 10.3442C7.16596 11.2376 7.47298 12.0582 7.98627 12.7095C8.43607 13.2802 8.86123 13.9028 9.23041 14.5298V15.8032H12.746V14.563C13.1118 13.9532 13.5864 13.2515 14.0136 12.7095C14.5273 12.058 14.8339 11.2382 14.8339 10.3442C14.8339 8.22649 13.1174 6.51025 10.9999 6.51025ZM4.83978 7.80713C4.6333 7.82483 4.44889 7.96317 4.3808 8.17236C4.29 8.45094 4.4418 8.75159 4.72064 8.84229L5.89642 9.22315C5.95132 9.24075 6.00608 9.25045 6.06049 9.25045C6.2844 9.25045 6.49123 9.10773 6.56439 8.88326C6.65519 8.60468 6.50339 8.30401 6.22455 8.21334L5.04877 7.83248C4.97837 7.80978 4.90861 7.80123 4.83978 7.80713ZM17.1601 7.80913C17.0915 7.80313 17.0204 7.81003 16.9511 7.83253L15.7773 8.21339C15.4985 8.30409 15.3447 8.6045 15.4355 8.88331C15.5085 9.10758 15.7174 9.2505 15.9414 9.2505C15.9959 9.2505 16.0489 9.2404 16.1035 9.2232L17.2792 8.84234C17.5582 8.75164 17.7097 8.45315 17.6191 8.17437C17.551 7.96537 17.3659 7.82699 17.1601 7.80913ZM6.10736 11.4009C6.03856 11.3949 5.96677 11.4018 5.89642 11.4243L4.72064 11.8052C4.44183 11.8956 4.28997 12.1961 4.3808 12.4751C4.4533 12.6996 4.6608 12.8423 4.88471 12.8423C4.93881 12.8423 4.99433 12.8323 5.04877 12.815L6.22455 12.4341C6.50359 12.3436 6.65515 12.045 6.56439 11.7662C6.49679 11.5572 6.31389 11.4189 6.10736 11.4009ZM15.8945 11.4009C15.6884 11.4188 15.5035 11.5572 15.4355 11.7662C15.3447 12.045 15.4986 12.3435 15.7773 12.4341L16.9511 12.8169C17.0056 12.8346 17.0607 12.8423 17.1152 12.8423C17.3391 12.8423 17.5459 12.6993 17.6191 12.4752C17.7097 12.1962 17.5583 11.8979 17.2792 11.8072L16.1035 11.4244C16.0337 11.4019 15.9632 11.3949 15.8945 11.4009ZM7.86322 14.0025C7.7289 14.0238 7.60322 14.0968 7.51752 14.2154L6.79096 15.2134C6.61837 15.4506 6.67074 15.7832 6.90814 15.9556C7.00194 16.0243 7.11049 16.0572 7.21869 16.0572C7.38311 16.0572 7.54475 15.9813 7.64838 15.8384L8.37494 14.8384C8.54752 14.6014 8.49514 14.2706 8.25775 14.0982C8.13959 14.0115 7.99754 13.9812 7.86322 14.0025ZM14.1367 14.0025C14.0025 13.9813 13.859 14.0125 13.7402 14.0982C13.5034 14.2705 13.4523 14.6013 13.6249 14.8384L14.3496 15.8384C14.4531 15.9812 14.6147 16.0572 14.7792 16.0572C14.8874 16.0572 14.9974 16.024 15.0917 15.9556C15.3287 15.7832 15.3814 15.4506 15.2089 15.2134L14.4824 14.2154C14.3963 14.0969 14.2708 14.0237 14.1367 14.0025ZM9.58002 16.4107C9.36028 16.4107 9.18158 16.5894 9.18158 16.8091C9.18158 17.029 9.36028 17.2076 9.58002 17.2076H12.4179C12.6376 17.2076 12.8164 17.029 12.8164 16.8091C12.8164 16.5894 12.6377 16.4107 12.4179 16.4107H9.58002ZM9.39252 17.8072C9.39252 18.3019 9.77938 18.7028 10.2675 18.731C10.3215 19.0883 10.6273 19.3638 10.9999 19.3638C11.3722 19.3638 11.6786 19.0884 11.7324 18.731C12.2196 18.7022 12.6074 18.3016 12.6074 17.8072H9.39252Z" fill="#ECCA6D"/>
</svg>
