<svg width="313" height="94" viewBox="0 0 313 94" fill="none" xmlns="http://www.w3.org/2000/svg">
<path fill-rule="evenodd" clip-rule="evenodd" d="M9 0C4.02944 0 0 4.02944 0 9C0 13.9706 4.02944 18 9.00001 18H272C276.971 18 281 13.9706 281 9C281 4.02944 276.971 0 272 0H9ZM6 34C2.68629 34 0 36.6863 0 40C0 43.3137 2.68629 46 6 46H297C300.314 46 303 43.3137 303 40C303 36.6863 300.314 34 297 34H6ZM6 58C2.68629 58 0 60.6863 0 64C0 67.3137 2.68629 70 6 70H307C310.314 70 313 67.3137 313 64C313 60.6863 310.314 58 307 58H6ZM0 88C0 84.6863 2.68629 82 6 82H263C266.314 82 269 84.6863 269 88C269 91.3137 266.314 94 263 94H6C2.68629 94 0 91.3137 0 88Z" fill="white" fill-opacity="0.1"/>
<path fill-rule="evenodd" clip-rule="evenodd" d="M9 0C4.02944 0 0 4.02944 0 9C0 13.9706 4.02944 18 9.00001 18H272C276.971 18 281 13.9706 281 9C281 4.02944 276.971 0 272 0H9ZM6 34C2.68629 34 0 36.6863 0 40C0 43.3137 2.68629 46 6 46H297C300.314 46 303 43.3137 303 40C303 36.6863 300.314 34 297 34H6ZM6 58C2.68629 58 0 60.6863 0 64C0 67.3137 2.68629 70 6 70H307C310.314 70 313 67.3137 313 64C313 60.6863 310.314 58 307 58H6ZM0 88C0 84.6863 2.68629 82 6 82H263C266.314 82 269 84.6863 269 88C269 91.3137 266.314 94 263 94H6C2.68629 94 0 91.3137 0 88Z" fill="url(#paint0_linear_8874_1275)"/>
<defs>
<linearGradient id="paint0_linear_8874_1275" x1="-105.526" y1="41.5" x2="-9.83714" y2="41.5" gradientUnits="userSpaceOnUse">
<stop stop-color="#212227" stop-opacity="0"/>
<stop offset="0.5" stop-color="#363840"/>
<stop offset="1" stop-color="#212227" stop-opacity="0"/>
</linearGradient>
</defs>
</svg>
