<svg width="18" height="13" viewBox="0 0 18 13" fill="none" xmlns="http://www.w3.org/2000/svg">
<path fill-rule="evenodd" clip-rule="evenodd" d="M9.36232 3.10398C11.8494 3.10408 14.2414 4.02616 16.0439 5.67964C16.1797 5.8073 16.3966 5.80569 16.5303 5.67603L17.8278 4.41257C17.8955 4.34681 17.9332 4.25773 17.9327 4.16505C17.9321 4.07237 17.8933 3.98372 17.8248 3.91873C13.0938 -0.455984 5.63008 -0.455984 0.899072 3.91873C0.83054 3.98368 0.791655 4.07229 0.791023 4.16497C0.790392 4.25766 0.828064 4.34676 0.895704 4.41257L2.19357 5.67603C2.32717 5.80588 2.54429 5.8075 2.67994 5.67964C4.48268 4.02606 6.87496 3.10397 9.36232 3.10398ZM9.35896 7.32425C10.7163 7.32417 12.0252 7.83591 13.0313 8.76004C13.1674 8.89119 13.3817 8.88835 13.5144 8.75363L14.8017 7.43432C14.8695 7.36512 14.9071 7.27124 14.9061 7.17369C14.9051 7.07614 14.8656 6.98306 14.7965 6.91527C11.7326 4.02442 6.9879 4.02442 3.92406 6.91527C3.85486 6.98306 3.81537 7.07619 3.81446 7.17377C3.81355 7.27135 3.8513 7.36522 3.91923 7.43432L5.20614 8.75363C5.3388 8.88835 5.55316 8.89119 5.68924 8.76004C6.6947 7.83652 8.00254 7.32482 9.35896 7.32425ZM11.8834 10.1178C11.8853 10.2232 11.8482 10.3247 11.781 10.3985L9.60429 12.8533C9.54048 12.9254 9.45349 12.966 9.36272 12.966C9.27195 12.966 9.18496 12.9254 9.12115 12.8533L6.94412 10.3985C6.87687 10.3247 6.83987 10.2231 6.84187 10.1177C6.84386 10.0124 6.88467 9.9126 6.95466 9.84199C8.34475 8.52809 10.3807 8.52809 11.7708 9.84199C11.8407 9.91266 11.8815 10.0125 11.8834 10.1178Z" fill="white"/>
</svg>
